<svg version="1" xmlns="http://www.w3.org/2000/svg" width="693.333" height="693.333" viewBox="0 0 520.000000 520.000000"><path d="M121.8 66.5c-.2.2-2.1.5-4.3.8-16.1 2.2-32.3 13.3-38.8 26.6l-3.2 6.6-.3 65.4c-.2 61.4-.1 65.7 1.6 71.6 2.1 6.7 5.2 11.6 14.9 23 4.3 5.1 6.4 8.4 6.8 11.1 1.6 9.6 8.2 20.7 19.3 32.5 3.5 3.9 4.4 5.6 4.8 9.5 1 9.6 1.2 11 2.8 17.7 2.3 9.8 4.9 14.2 13.5 23.2 7.5 7.8 7.8 8.2 9.4 15.8 1 4.3 2.7 9.7 3.8 12 1.3 2.6 12.9 15.1 30.8 33 39.9 40.2 34.7 37.9 87.1 38.3 54.7.3 49.5 2.5 90.3-38.4 17.8-17.9 30.3-31.3 31.5-33.7 2.4-4.8 4.7-15.8 5.7-26.5 2.1-24.3 3.1-26.4 21-44.9 10.6-10.9 17.5-19.2 17.5-21 0-.5.4-1.1.8-1.3.5-.2 2.4-3.5 4.3-7.3l3.4-7 .3-62.5c.3-45.6 0-64-.9-68-2.4-11.2-9.8-21.9-18.1-26.1-3.3-1.7-3.8-2.4-3.9-5.7-.3-14.5-9.1-30-19.9-34.9-5.7-2.5-14.9-2-20.8 1.2-6.5 3.5-11.5 8.5-14.4 14.3l-2.3 4.7-.3 65.4-.3 65.5-4.4 8.7c-3.6 7.4-6.2 10.8-15.8 20.6-12.8 13.2-18.2 19.4-20.1 23.2-2 4-4.4 12.1-5.1 17.1-.3 2.5-.8 5.2-1 6-.2.8-.6 3.1-.9 5-2.1 13.3-4.5 22.1-8.1 29.5-3.8 8-7.1 11.7-13 14.8-3.8 2-5.5 2.1-43 2.2-21.4.1-40.9-.3-43.2-.8l-4.3-.9-.1-105.6c0-58.1-.3-106.8-.5-108.2-1.4-7.5-11.3-19.8-18.9-23.4-3.4-1.6-3.5-1.9-3.6-7.4-.1-7.7-.7-10.7-2.9-15.6-7-14.7-27-25.3-49.5-26.1-4.1-.1-7.5-.1-7.7 0z"/></svg>